<?xml version="1.0" encoding="utf-8"?>
<!-- Generator: Adobe Illustrator 19.2.1, SVG Export Plug-In . SVG Version: 6.00 Build 0)  -->
<svg version="1.1" id="layer" xmlns="http://www.w3.org/2000/svg" xmlns:xlink="http://www.w3.org/1999/xlink" x="0px" y="0px"
	 viewBox="0 0 652 652" style="enable-background:new 0 0 652 652;" xml:space="preserve">
<style type="text/css">
	.st0{fill:#EC2024;}
	.st1{fill:#FFFFFF;}
	.st2{fill:#F7961D;}
	.st3{fill:#888888;}
	.st4{fill:#666666;}
</style>
<g>
	<path class="st0" d="M85.7,291.7c-13.9,16.9-50.2,24.2-71.3,24.2c-65,0-109.7-41.1-109.7-107c0-84.3,63.8-121.5,141.2-121.5
		c5.7,0,9.7,0.3,11.2,6.6c1.5,6,2.1,12.4,3.3,18.4c2.1,10.6,5.1,21.5,5.1,32.3c0,5.7-1.2,12.7-8.5,12.7c-4.2,0-8.2-0.6-12.4-0.6
		c-35.7,0-70.7,12.7-70.7,54.4c0,22.4,8.5,39.6,33.2,39.6c4,0,7.9-0.4,11.8-1.2l-0.6-16.9c-4.8,0.3-9.4,1.2-14.2,1.2
		c-7.9,0-14.8-0.9-14.8-10.3c0-5.4-0.3-10.9-0.3-16.3c0-5.7,0-17.2,8.2-17.8l79.2-5.4c4.3-0.3,8.1,2.9,8.5,7.3c0,0.1,0,0.2,0,0.3
		l3,94.3C87.9,288,87.1,290.1,85.7,291.7z"/>
	<path class="st0" d="M167.4,304.7c0,4-3.2,7.4-7.3,7.6l-48.1,0.9c-4.1-0.1-7.4-3.6-7.3-7.7c0,0,0-0.1,0-0.1l2.4-195.6
		c0-3.9,3-7.9,7.2-7.9l49.9,0.9c4.2,0,7.2,4.2,7.2,8.2L167.4,304.7z"/>
	<path d="M729.9,94.4H581.5c-2.8,0-5.6,0.5-8.3,1.4c-4.5-5.6-11.2-9.1-18.4-9.5c-12.8-1-25.3-1.9-37.3-1.9c-6-0.2-12,0.4-17.8,1.8
		c-10.3,2.7-21.4,10.8-21.4,25.4v13l-10.9-23.4c-3.6-8.5-11.2-13.9-20.9-14.8H446l-6.9-0.6c-10.3-0.8-21-1.6-31.7-1.6
		c-6.1-0.1-12.3,0.5-18.2,2c-5.1,1.4-21.6,7.2-21.6,25.4l0.1,87.4l-21.1-96.3l-0.1-0.5c-2.9-11.4-13-19.4-24.8-19.5h-86.1
		c-11.7,0.2-21.9,8.2-24.8,19.5l-24,104.5l2.1-95.4v-0.4c0-14-11-25.4-24.5-25.6l-49.8-0.9h-0.3c-13.7,0.2-24.7,11.4-24.7,25.1
		l-0.7,60.2c-4-2.2-8.6-3.3-13.2-3.1c4.2-4.8,7-11.9,7-21.9c0-10.4-2.2-20.4-4.1-29.1c-0.5-2.2-1-4.4-1.4-6.6s-0.8-4.3-1.1-6.8
		c-0.6-4-1.3-8.2-2.4-12.4c-2.5-10.3-8.8-15.2-13.6-17.4c-4.6-1.9-9.6-2.7-14.5-2.5c-44.4,0-82.6,11.3-110.3,32.8
		c-31.6,24.5-48.3,61.2-48.3,106.2c0,74.5,51.1,124.4,127.1,124.4c17.5,0,51.9-4.6,74.1-20.6c3.1,10.5,12.6,17.8,23.6,17.9h0.2
		l48.1-0.9c5.1-0.1,10.1-1.8,14.1-4.9c4.5,3.7,10.1,5.7,15.9,5.7h55.3c5.7,0,19.7-2.3,26.1-23.2c1.3-4.4,2.2-8.8,2.9-13.4h7.2
		c0.6,5.4,1.6,10.7,3,16c5.9,21.4,18.9,25,26.1,25.1L366,336h0.3c6.1,0,12-2.2,16.5-6.2c1.2,0.6,2.5,1.1,3.8,1.5
		c5.3,1.5,10.7,2.2,16.2,2c10.5-0.2,21-0.9,31.4-2.2l8.7-0.9c13.6-1.1,23.4-11.3,23.5-24.5l0.1-15.1l12.6,27.1
		c4.2,8.9,13.2,14.7,23.1,14.7l50.6-2.1h0.5c13.2-0.8,23.4-11.6,23.4-24.8L578,184c1.2,0.2,2.3,0.3,3.5,0.3h25.6l0.3,126.5
		c0,13.9,11.3,25.3,25.3,25.3h0.2l53.6-1.2c13.7-0.3,24.7-11.6,24.6-25.3l-1.1-125.3h19.9c14-0.1,25.3-11.3,25.6-25.3v-39.3
		C755.1,105.8,743.8,94.6,729.9,94.4z M87.6,288.2c-0.3,1.3-1,2.5-1.8,3.5c-13.9,16.9-50.2,24.2-71.3,24.2
		c-65,0-109.7-41.1-109.7-107c0-84.3,63.8-121.5,141.2-121.5c5.7,0,9.7,0.3,11.2,6.6c1.5,6,2.1,12.4,3.3,18.4
		c2.1,10.6,5.1,21.5,5.1,32.3c0,5.7-1.2,12.7-8.5,12.7c-4.2,0-8.2-0.6-12.4-0.6c-35.7,0-70.7,12.7-70.7,54.4
		c0,22.4,8.5,39.6,33.2,39.6c4,0,7.9-0.4,11.8-1.2l-0.6-16.9c-4.8,0.3-9.4,1.2-14.2,1.2c-7.9,0-14.8-0.9-14.8-10.3
		c0-5.4-0.3-10.9-0.3-16.3c0-5.7,0-17.2,8.2-17.8l79.2-5.4c4.3-0.3,8.1,2.9,8.5,7.3c0,0.1,0,0.2,0,0.3l2.9,89.1L87.6,288.2z
		 M167.7,290.5l-2.1,9.1c-0.8,3.3-0.9,6.8-0.3,10.1c-1.3,1.5-3.2,2.4-5.2,2.4l-48.1,0.9c-4.1-0.1-7.4-3.6-7.3-7.7c0,0,0-0.1,0-0.1
		l0.2-15.4c0.2-1.3,0.3-2.7,0.3-4l-0.2-5.8l2.1-170.4c0-3.9,3-7.9,7.2-7.9l49.9,0.9c4.2,0,7.2,4.2,7.2,8.2L167.7,290.5z
		 M366.2,318.6l-55-0.9c-12.1-0.3-12.4-32.3-13.9-41.1h-38.1c-1.5,8.2-2.1,36.6-13.6,36.6h-55.3c-2.4-0.1-4.6-1.2-6.2-3.1
		c0.4-1.7,0.6-3.4,0.6-5.1l0.3-12.4l42.8-186.2c0.9-3.6,4.1-6.2,7.9-6.3h86.1c3.7,0.1,7,2.7,7.9,6.3l38.2,174.8v25.9
		c0,3.6,0.8,7.1,2.3,10.4C369,318.2,367.6,318.6,366.2,318.6z M559.4,305.3c0.1,4.1-3.2,7.5-7.3,7.6l-49.9,2.1
		c-3.1,0-5.9-1.8-7.3-4.5l-45-97l-0.9,92.2c0,4.5-3.3,6.9-7.6,7.3c-12.7,1.2-26,3-38.7,3c-3.9,0.2-7.8-0.3-11.6-1.4
		c0.2-1.2,0.3-2.5,0.3-3.7v-2.7l-6.3-28.8L385,111.7c0-9.7,15.7-10,22.4-10c12.4,0,25.1,1.2,37.5,2.1c3,0.3,5.4,1.5,6.6,4.5
		l44.4,95.8l-0.3-92.4c0-9.7,15.1-9.7,21.7-9.7c11.8,0,24.2,0.9,36,1.8c2.5,0.1,4.8,1.3,6.3,3.3c-2.3,3.9-3.5,8.3-3.5,12.7V159
		c0,5.1,1.5,10.1,4.4,14.3L559.4,305.3z M738,159c-0.2,4.4-3.8,7.8-8.2,7.9h-37.5l1.2,142.7c0.1,4.2-3.3,7.8-7.6,7.9l-53.5,1.2
		c-4.3-0.1-7.8-3.6-7.9-7.9l-0.3-143.9h-42.9c-1.2,0-2.3-0.3-3.3-0.8l0.5-53.6c0.9-0.4,1.9-0.6,2.8-0.6h148.4
		c4.4,0.1,7.9,3.5,8.2,7.9L738,159z"/>
	<polygon points="270.7,221.3 287.7,221.3 279.8,177.7 	"/>
	<path class="st0" d="M366.2,318.6l-55-0.9c-12.1-0.3-12.4-32.3-13.9-41.1h-38.1c-1.5,8.2-2.1,36.6-13.6,36.6h-55.3
		c-4.5,0-9.1-4.8-7.9-9.4l45.3-197.4c0.9-3.6,4.1-6.2,7.9-6.3h86.1c3.7,0.1,7,2.7,7.9,6.3l44.4,203.4v0.9
		C374,315,370.6,318.5,366.2,318.6z M279.8,177.7l-9.1,43.5h16.9L279.8,177.7z"/>
	<path class="st0" d="M559.4,305.3c0.1,4.1-3.2,7.5-7.3,7.6l-49.9,2.1c-3.1,0-5.9-1.8-7.3-4.5l-45-97l-0.9,92.2
		c0,4.5-3.3,6.9-7.6,7.3c-12.7,1.2-26,3-38.7,3c-6,0-17.5-0.3-17.5-8.8L385,111.5c0-9.7,15.7-10,22.4-10c12.4,0,25.1,1.2,37.5,2.1
		c3,0.3,5.4,1.5,6.6,4.5l44.4,95.8l-0.3-92.4c0-9.7,15.1-9.7,21.7-9.7c11.8,0,24.2,0.9,36,1.8c4.3,0.1,7.8,3.5,7.9,7.9L559.4,305.3z
		"/>
	<path class="st0" d="M729.9,166.9h-37.5l1.2,142.7c0.1,4.2-3.3,7.8-7.6,7.9l-53.5,1.2c-4.3-0.1-7.8-3.6-7.9-7.9l-0.3-143.9h-42.9
		c-4.3-0.1-7.8-3.6-7.9-7.9v-39.3c0.1-4.3,3.6-7.8,7.9-7.9h148.4c4.4,0.1,7.9,3.5,8.2,7.9V159C737.8,163.4,734.2,166.8,729.9,166.9z
		"/>
	<path d="M-6.9,456.9l-0.3,38.7c13-0.6,32.9-3.6,32.9-20.6C25.7,460.2,4,457.8-6.9,456.9z"/>
	<path d="M25.4,393.1c0-16.9-19.9-20-32.9-20.3l0.3,38.7C3.7,410.6,25.4,407.9,25.4,393.1z"/>
	<path d="M108.8,389.4c0-26-11.1-60.5-63.9-76.9c-29.1-9.1-62-10.3-93.1-10.3H-74c-14,0-25.3,11.3-25.3,25.3l0.3,213.4
		c0,13.9,11.3,25.3,25.3,25.3h26.3c29.5,0,63.6-1.2,92.9-10.4c52.5-16.5,63.6-50.9,63.6-76.8c0-16.5-6-32.5-17-44.9
		C102.8,421.7,108.7,405.8,108.8,389.4z M-47.4,548.8h-26.3c-4.3-0.1-7.8-3.6-7.9-7.9l-0.3-213.4c0.1-4.3,3.6-7.8,7.9-7.9h25.7
		c48.4,0,139.6,2.1,139.6,69.8c0,18.7-10,33.9-24.8,44.7c14.8,10.9,25.1,25.7,25.1,44.7C91.6,546.3,1,548.8-47.4,548.8z"/>
	<path d="M659.9,393.1c0-16.9-19.9-20-32.9-20.3l0.3,38.7C638.1,410.6,659.9,407.9,659.9,393.1z"/>
	<path d="M627.6,456.9l-0.3,38.7c13-0.6,32.9-3.6,32.9-20.6C660.2,460.2,638.4,457.8,627.6,456.9z"/>
	<path d="M726.5,434.1c10.7-12.4,16.6-28.3,16.7-44.7c0-26-11.1-60.5-63.9-76.9c-29.1-9.1-62-10.3-93.1-10.3h-25.7
		c-9.5,0-18.1,5.3-22.5,13.8c-4.7-4.9-11.3-7.7-18.1-7.7l-56.1,0.3c-10.7,0.1-20.3,6.8-23.9,16.9L425,370.3l-14.8-44.6
		c-3.4-10.3-12.9-17.2-23.7-17.2l-56.3-0.3c-13.4,0-24.6,10.4-25.6,23.7l-7.9,191.6c-0.8,13.8,9.8,25.6,23.6,26.4c0,0,0.1,0,0.1,0
		c4.3,0.3,8.7,0.8,13.3,1.2c8.8,1.1,17.7,1.7,26.7,1.8c19.7,0,28.5-7.2,32.3-14.5c4.6,4.5,10.8,7,17.2,6.9h29.9
		c6.4,0,12.6-2.5,17.3-6.9c1.3,2.5,3.1,4.8,5.2,6.8c5,4.7,11.7,7.1,18.6,6.7l48.7-3.3l0,0c2.3-0.1,4.6-0.6,6.7-1.4
		c3,11,13,18.7,24.4,18.7H587c29.5,0,63.7-1.2,92.9-10.4c52.5-16.5,63.6-50.9,63.6-76.8C743.5,462.4,737.4,446.5,726.5,434.1z
		 M528.4,531.5l-48.7,3.3c-4.4,0-8-3.5-8.2-7.9l-1.8-83.4l-22.4,78.8c-0.9,3.4-4,5.8-7.6,5.7H410c-3.5,0-6.5-2.4-7.3-5.7L380,443.3
		l-1.8,83.7c-0.3,8.5-11.8,8.8-17.8,8.8c-12.7,0-26-2.1-38.7-3c-4.3-0.1-7.7-3.7-7.6-8.1c0,0,0-0.1,0-0.1l7.9-191.3
		c0.3-4.3,3.9-7.5,8.2-7.6l56.2,0.3c3.3,0,6.2,2,7.3,5.1l31.4,94.6l31.1-94.3c1.1-3.2,4.1-5.4,7.6-5.4l56.2-0.3
		c4.2,0,7.7,3.4,7.9,7.6l7.7,185.5v7.2C534.6,529.1,531.7,531.4,528.4,531.5z M587.1,548.8h-26.3c-4.3-0.1-7.8-3.6-7.9-7.9v-13.4
		c0.2-1.6,0.3-3.1,0.2-4.7l-0.2-5.2l-0.3-190.1c0.1-4.3,3.6-7.8,7.9-7.9h25.7c48.4,0,139.6,2.1,139.6,69.8c0,18.7-10,33.9-24.8,44.7
		c14.8,10.9,25.1,25.7,25.1,44.7C726.1,546.3,635.4,548.8,587.1,548.8z"/>
	<path class="st1" d="M-47.4,548.8h-26.3c-4.3-0.1-7.8-3.6-7.9-7.9l-0.3-213.4c0.1-4.3,3.6-7.8,7.9-7.9h25.7
		c48.4,0,139.6,2.1,139.6,69.8c0,18.7-10,33.9-24.8,44.7c14.8,10.9,25.1,25.7,25.1,44.7C91.6,546.3,1,548.8-47.4,548.8z M-7.5,372.8
		l0.3,38.7c10.9-0.9,32.6-3.6,32.6-18.4C25.4,376.2,5.5,373.1-7.5,372.8z M-6.9,456.9l-0.3,38.7c13-0.6,32.9-3.6,32.9-20.6
		C25.7,460.2,4,457.8-6.9,456.9z"/>
	<path d="M209.2,306.1c-36,0-68.3,14.2-91.1,39.9c-21.4,24.2-33.1,57.1-33.1,92.7c0,77.2,48,127.1,122.3,127.1
		c32.6,0,62.2-14.3,83.4-40.3c19-23.2,29.8-54.6,29.8-85.9C320.6,374,279,306.1,209.2,306.1z M207.4,548.4
		c-66.8,0-104.9-44.7-104.9-109.7c0-62.9,41.1-115.2,106.7-115.2c60.8,0.1,94,61.8,94,116.1C303.2,494.3,266,548.4,207.4,548.4z"/>
	<path d="M238,441.1c0-19-11.8-43.8-33.9-43.8s-33.5,24.8-33.5,43.8S182,485,204.1,485S238,460.2,238,441.1z M204.1,467.6
		c-10,0-16.1-15.4-16.1-26.4s6.1-26.4,16.1-26.4s16.5,15.7,16.5,26.4C220.6,457.3,210.8,467.6,204.1,467.6L204.1,467.6z"/>
	<path class="st1" d="M207.4,548.4c-66.8,0-104.9-44.7-104.9-109.7c0-62.9,41.1-115.2,106.7-115.2c60.8,0.1,94,61.8,94,116.1
		C303.2,494.3,266,548.4,207.4,548.4z M204.1,397.3c-22.1,0-33.5,24.8-33.5,43.8s11.5,43.8,33.5,43.8s33.9-24.7,33.9-43.8
		C238,422.1,226.2,397.3,204.1,397.3L204.1,397.3z"/>
	<path class="st1" d="M528.4,531.5l-48.7,3.3c-4.4,0-8-3.5-8.2-7.9l-1.8-83.4l-22.4,78.8c-0.9,3.4-4,5.8-7.6,5.7H410
		c-3.5,0-6.5-2.4-7.3-5.7L380,443.3l-1.8,83.7c-0.3,8.5-11.8,8.8-17.8,8.8c-12.7,0-26-2.1-38.7-3c-4.3-0.1-7.7-3.7-7.6-8.1
		c0,0,0-0.1,0-0.1l7.9-191.3c0.3-4.3,3.9-7.5,8.2-7.6l56.2,0.3c3.3,0,6.2,2,7.3,5.1l31.4,94.6l31.1-94.3c1.1-3.2,4.1-5.4,7.6-5.4
		l56.2-0.3c4.2,0,7.7,3.4,7.9,7.6l7.8,190.4c0.2,4.1-3,7.6-7.1,7.9C528.5,531.5,528.5,531.5,528.4,531.5z"/>
	<path class="st1" d="M587.1,548.8h-26.3c-4.3-0.1-7.8-3.6-7.9-7.9l-0.3-213.4c0.1-4.3,3.6-7.8,7.9-7.9h25.7
		c48.4,0,139.6,2.1,139.6,69.8c0,18.7-10,33.9-24.8,44.7c14.8,10.9,25.1,25.7,25.1,44.7C726.1,546.3,635.4,548.8,587.1,548.8z
		 M626.9,372.8l0.3,38.7c10.9-0.9,32.6-3.6,32.6-18.4C659.9,376.2,640,373.1,626.9,372.8z M627.6,456.9l-0.3,38.7
		c13-0.6,32.9-3.6,32.9-20.6C660.2,460.2,638.4,457.8,627.6,456.9z"/>
	<path class="st2" d="M367.3,205.4c2.9,12.8,0.7,26.2-6.1,37.4c-7.2,11.6-19.8,20.4-33.4,22.4c0.5,0.6,0.9,1.2,1.4,1.8
		c1.6,2.5,0.4,6.9-3.3,6.3c-6.1-1-10.2-7.9-11.9-13.4c-0.5-1.8-0.9-3.6-1-5.4c-7,8-10.8,19.9-11.7,29.6c-0.1,0.8-0.1,1.6-0.2,2.4
		c9.2,5.4,17.7,11.8,25.2,19.3c6,5.8,11.5,12.2,16.4,19c5.4-2.3,10.5-5.1,15.2-8.5c19.5-14,33.3-36.4,33.3-60.8
		C391.2,235.9,382.4,217.6,367.3,205.4z"/>
	<path class="st1" d="M326.4,305.7c3,2.9,5.9,5.9,8.6,9.1c9.2-4.3,18-10.2,23.4-19c5.7-9.2,7.2-20.8,2.1-30.6
		c-0.5-0.9-1.6-1.3-2.5-0.9c-0.1,0.1-0.3,0.2-0.4,0.3c-6,6.4-13,11.7-20.8,15.7c-4.4,2.2-9.4,3.9-14.4,2.9c-4.7-1-8.2-4.3-11.5-7.5
		c-0.9-0.8-2.7-0.6-2.7,0.9c-0.2,5.1,0.3,10.2,1.5,15.1C315.6,295.9,321.2,300.6,326.4,305.7z"/>
	<circle class="st3" cx="206" cy="429.3" r="127.4"/>
	<path class="st0" d="M367.3,205.4c1,4.4,1.4,8.9,1.2,13.3c2.8,5.9,5.9,11.7,8.4,17.8c3.8,9.7,6,19.3,4.8,29.8
		c-1.3,9.4-4.2,18.5-8.6,26.9c-2.1,4.2-4.4,8.3-6.9,12.3c-1.6,2.7-3.7,5.4-5.2,8.4c17.9-14.1,30.5-35.4,30.5-58.7
		C391.3,235.9,382.4,217.6,367.3,205.4z"/>
	<path class="st4" d="M144.4,491.7c-44.8-44.8-49.9-115.8-11.9-166.5C75.1,365.8,61.4,445.3,102,502.8s120.1,71.1,177.6,30.5
		c10.8-7.7,20.4-17,28.4-27.6C257.3,541.5,188.3,535.6,144.4,491.7z"/>
	<path class="st1" d="M313.9,408.6c-3,0-5.7-2-6.4-5c-4.7-18-14.1-34.4-27.3-47.6c-2.6-2.6-2.6-6.8,0-9.4c2.6-2.6,6.8-2.6,9.4,0
		c14.8,14.8,25.4,33.3,30.8,53.6c1,3.5-1.1,7.2-4.7,8.1c0,0-0.1,0-0.1,0C315,408.5,314.5,408.6,313.9,408.6z"/>
	<ellipse transform="matrix(0.2585 -0.966 0.966 0.2585 -243.1377 427.852)" cx="157.1" cy="372.3" rx="42.4" ry="21.2"/>
	<ellipse transform="matrix(0.1259 -0.992 0.992 0.1259 -174.9586 571.1401)" cx="236.6" cy="384.8" rx="47.1" ry="23.6"/>
	
		<ellipse transform="matrix(0.1302 -0.9915 0.9915 0.1302 -160.3059 560.577)" class="st1" cx="239.3" cy="371.7" rx="24.7" ry="15.8"/>
	
		<ellipse transform="matrix(0.2407 -0.9706 0.9706 0.2407 -224.1119 426.9198)" class="st1" cx="160.8" cy="356.7" rx="20.5" ry="13.1"/>
	<path class="st3" d="M305.5,329.8c15.7,15.6,27.4,34.7,34.3,55.7c0.5-0.4,0.9-0.8,1.4-1.2c12.5-12.4,2.4-42.7-22.5-67.6
		s-55.1-35-67.5-22.5c-0.4,0.4-0.8,0.9-1.2,1.4C270.8,302.4,289.9,314.2,305.5,329.8z"/>
	<path d="M319.5,292.9c2.5,3,6.3,5.1,9,8s4.8,6.5,7.2,9.8c2,2.7,5.6-0.2,4.6-3c-1.5-4.3-5-8.2-8.3-11.3c-2.9-2.8-6.7-6.1-10.8-6.8
		c-1.1-0.1-2.1,0.8-2.2,1.9C319.1,292,319.2,292.5,319.5,292.9z"/>
	<path d="M325.5,287.6c3.5,2.8,7.3,5,10.5,8.3c2.9,3,4.7,7,7.7,9.7c1.6,1.5,4.1-0.5,3.7-2.4c-0.7-4.4-5-8.7-8.1-11.6
		c-3.4-3.2-7.4-6.4-11.9-7.6c-1.1-0.4-2.3,0.3-2.7,1.4C324.5,286.1,324.8,287.1,325.5,287.6z"/>
	<path d="M333.4,281.9l-0.1-0.2l-1.4,1.2c2.5,1.8,5.4,2.9,7.8,4.9c3.3,2.7,5.5,6.2,8.4,9.4c0.5,0.5,1.3,0.5,1.8,0
		c0.4-0.4,0.5-0.9,0.3-1.4c-1.5-3.9-4.9-7.1-8-9.8c-2.1-1.8-6.7-5.8-9.7-5.3c-0.6,0.1-1.1,0.7-1,1.4c0.1,0.2,0.2,0.5,0.3,0.7
		C332.6,283.7,333.8,282.8,333.4,281.9L333.4,281.9z"/>
	<path d="M337.8,279.5c2.4,1.7,4.9,3.2,7.2,5c2.4,2,4.4,4.3,6.2,6.8c0.3,0.4,1,0,0.8-0.5c-2.7-5.3-8.7-9.1-13.7-12
		c-0.2-0.1-0.5-0.1-0.6,0.1C337.6,279.1,337.6,279.4,337.8,279.5L337.8,279.5z"/>
	<path d="M391.7,222c-6.8-13.5-17.8-24.5-31.4-31.1c-3.5-1.7-7.2,2.7-5.5,6c6.7,12.8,6.7,29-1.2,41.3c-7.2,11.2-18.6,16.9-31.3,19.3
		c0-0.1-0.1-0.2-0.1-0.3c-1.1-4-0.7-8.2,1.3-11.8c1.8-3.9-3.8-7.7-6.8-4.8c-6.5,6.1-12.2,11.8-16.3,19.8c-3.5,7-5.6,14.5-6.3,22.3
		c2.4,1.1,4.7,2.3,7,3.7c0-0.8,0.1-1.6,0.2-2.4c0.9-9.7,4.7-21.5,11.7-29.6c0.1,1.8,0.5,3.7,1,5.4c1.7,5.5,5.7,12.4,11.9,13.4
		c3.7,0.6,4.9-3.8,3.3-6.3c-0.4-0.6-0.9-1.3-1.4-1.8c13.6-2,26.3-10.9,33.4-22.4c6.8-11.2,9-24.6,6.1-37.4
		c15.1,12.2,24,30.5,24.1,49.9c0,24.5-13.9,46.8-33.3,60.8c-4.7,3.4-9.8,6.3-15.2,8.6c1.4,1.9,2.7,3.9,3.9,5.9
		c2.9-1.1,5.7-2.5,8.5-3.9c12.2-6.7,22.6-16.1,30.4-27.7C401.1,276.2,404.3,246.9,391.7,222z"/>
	<path d="M200,506.8c8.7-11.8,21.7-16.4,36-16.4c0.6,0,0.6-3.3-0.1-3.5c-14.8-3.7-30,6.5-35.9,19.5
		C199.9,506.5,199.9,506.9,200,506.8L200,506.8z"/>
	<path class="st1" d="M277.4,438.1c-1.3-2.1-3.9-2.8-6-1.6l-16.1,8.4c-8.2,1.7-16.2,3.8-24.1,6.4c-0.5-2.1-2.5-3.4-4.6-2.9
		c-0.2,0-0.4,0.1-0.5,0.2c-21.4,6.4-43.9,6.9-66,5.1c-0.9-0.1-1.8,0.2-2.5,0.8c-3.4-1.3-6.8-2.9-10.1-4.6c-3.6-1.9-8.7,2.2-6,6
		l2.3,3.3l0.1,0.2c1,2.9,2.9,5.4,5.3,7.2c0.6,0.7,1.2,1.3,1.9,1.9c1.4,1.5,3.7,1.7,5.4,0.5c7.7,2.5,15.6,4,23.7,4.6
		c0.2,0,0.5,0,0.7,0c14.2,2.5,28.7,2.3,42.8-0.6c1.1,1,2.6,1.4,4.1,1l21.5-5.1c5.9-1.4,11.9-2.6,17.5-5.1
		C276.1,459.2,282.8,448.2,277.4,438.1z"/>
	<path d="M283.8,430c0-1.8-1-3.4-2.6-4.2c-1-0.7-2.2-0.9-3.4-0.6c-1,0.2-1.9,0.8-2.5,1.6c-4.7,3.8-9.9,7-15.5,9.5
		c-6.1,2.5-12.3,4.5-18.6,6c-13.2,3.4-26.6,5.6-40.2,6.5c-13.7,0.9-27.4,0.4-41-1.5c-6-0.7-11.9-2-17.6-3.9c-2.7-0.9-5.4-2-8-3.2
		c-2.8-1.3-5.2-3.1-8.3-3.7c-1.3-0.1-2.4,0.8-2.5,2.1c0,0.4,0,0.8,0.2,1.1c1.6,2.6,3.9,4.7,6.6,6.1c0.3,0.3,0.6,0.5,0.9,0.6
		c0.7,0.9,1.4,2.5,1.9,3.2c0.9,1.5,1.9,2.9,2.7,4.4c1.5,2.5,2.9,5.2,4.1,7.8c2.7,5.8,4.9,11.7,6.7,17.8c1.6,5.8,2.8,11.6,3.9,17.5
		s1,12.9,3.4,18.3c0,0.4,0.2,0.9,0.5,1.2c3.6,4.4,11,6.3,16.3,7.8c6.3,1.8,12.8,3,19.3,3.6c13.3,1.1,26.7-0.4,39.4-4.3
		c12.1-3.8,23.8-9.7,33-18.6c8.9-8.9,15.1-20.1,17.8-32.3C283.9,459,284.2,444.4,283.8,430z M245,507.3
		c-13.1,7.7-27.9,12.1-43.1,12.8c-7.6,0.4-15.2,0-22.7-1.2c-4.1-0.7-8.2-1.5-12.2-2.7c-2.2-0.6-4.5-1.5-6.8-2.1
		c0.3-3.4-0.6-7.1-1.2-10.5c-0.5-3.4-1.1-7-1.8-10.4c-1.4-6.9-3.2-13.7-5.4-20.4c-2.2-6.8-5.2-13.3-8.8-19.5
		c-0.4-0.7-0.9-1.7-1.5-2.7c5.4,1.8,10.9,3.1,16.6,3.9c14.4,2.2,29,2.9,43.6,2c15-0.8,29.8-3.2,44.2-7.2c9.8-2.7,20.3-5.9,28.8-11.9
		c-0.2,12-0.7,24.1-4,35.6C266.9,487.4,257.6,499.7,245,507.3L245,507.3z"/>
	<path d="M175.1,518.1l0.3,0.1l0,0L175.1,518.1z"/>
	<path d="M273.5,458.6c-9.4,3.5-18.5,7.3-28.2,9.8c-21.4,5.4-43.7,6.9-65.6,4.5c-5.3-0.6-10.7-1.4-16-2.3c-2.9-0.5-5.7-1.1-8.5-1.8
		c-1.6-0.4-3.3-0.9-5.4-1.4c0.7,1.8,1.4,3.7,2,5.5l0.3,1.1c1.1,3.2,2,6.5,2.9,9.8l0.1,0.3c0,0,0,0.1,0,0.1c0.8,3,1.5,6.1,2.1,9.1
		c0.7,3.5,1.3,6.9,1.8,10.4c0.5,3.5,1.5,7,1.2,10.5c2.3,0.6,4.6,1.5,6.8,2.1s4.3,1.1,6.4,1.5c0-2.5,0.6-5,1.8-7.3l0,0
		c0.2-0.4,0.3-0.8,0.5-1.3l0.3-0.1c2.2-3.6,5.2-6.7,8.7-8.9c2.1-1.3,4.4-2.3,6.7-3h0.1l0,0c4.8-1.5,9.9-1.4,14.6,0.2l-0.9,1h0.7
		c0.4,0.1,0.8,0.2,1.2,0.2l1.4-0.1c2.6-1.9,5.5-3.5,8.5-4.7c11.7-2.9,25.1-0.1,34,7.8c0.3,0.3,0.5,0.6,0.7,0.9h0.1
		c9.2-7.6,15.8-17.8,18.9-29.3c0.6-2,1.1-4.1,1.5-6.2l0,0c0.2-0.8,0.3-1.6,0.5-2.4l0,0C273,462.5,273.3,460.6,273.5,458.6z"/>
	<path class="st0" d="M201.9,520.1c15.2-0.7,30-5.1,43.1-12.8c2.4-1.4,4.6-3,6.8-4.8c-0.2-0.4-0.4-0.7-0.7-0.9
		c-8.9-7.9-22.4-10.6-34-7.8c-6.8,2.6-12.7,7.2-17,13c0,0-0.1-0.2,0-0.3c1.6-3.4,3.6-6.5,6.2-9.2c-6.8-2.7-15.4-1-21.4,2.8
		c-5.7,3.6-11.4,10.6-11.3,17.7c1.9,0.4,3.8,0.8,5.7,1.1C186.7,520.1,194.3,520.5,201.9,520.1z"/>
	<path d="M343.8,400.4c2.3-2.3,4.5-4.5,6.8-6.8c2.6-2.7,4.8-5.8,6.3-9.2c5.5-12.4,2.6-26.9-2.4-39c-6.2-15.1-16.4-28.5-28-39.8
		c-11.2-10.9-24.2-20.2-38.8-25.8c-12.4-4.7-27.2-6.8-39.3-0.1c-4.3,2.4-7.5,5.9-10.9,9.3l-2,2c-0.1,0.1-0.3,0.4-0.5,0.5
		c-0.4,0.2-1.6-0.2-2.1-0.3c-4.5-0.9-9-1.5-13.5-1.9c-16.2-1.5-32.6-0.3-48.4,3.7c-15.1,3.9-29.4,10.2-42.4,18.8
		c-13.4,8.9-25.2,20-34.9,32.8c-9,11.9-16.1,25.2-20.9,39.4c-9.7,28.8-9.9,59.9-0.6,88.9c4.6,14.3,11.5,27.7,20.4,39.8
		c9.8,13.3,21.9,24.8,35.7,34c15,10,31.9,17,49.6,20.6c17.9,3.6,36.4,3.7,54.4,0.4c17.7-3.3,34.7-10.1,49.9-19.9
		c14.3-9.3,26.8-21,37-34.7c18.6-25,28.4-55.5,27.7-86.7C346.5,417.6,345.5,408.9,343.8,400.4z M251.1,294.2
		c7.4-7.4,19.5-5.9,28.5-2.9c10.9,3.5,20.9,9.8,29.7,17c9.9,8,18.4,17.5,25.3,28.1c5.4,8.4,10,17.9,11.4,27.9c1,7,0.2,14.7-5,19.9
		c-0.4,0.4-0.9,0.9-1.4,1.4c-5.3-16.3-13.6-31.5-24.5-44.9c-10.9-13.5-24.3-24.9-39.3-33.5c-8.3-4.8-17.2-8.7-26.3-11.7L251.1,294.2
		z M158.1,547.4c-65.2-26.4-96.7-100.7-70.2-166s100.7-96.7,166-70.2c12.5,5.1,24.1,12.1,34.4,20.8c10.2,8.6,18.9,18.7,26,30.1
		c6.8,10.9,11.9,22.9,15.1,35.3c3.5,13.6,4.8,27.7,3.7,41.7c-1.1,14.4-4.6,28.6-10.5,41.8c-5.8,12.9-13.6,24.7-23.1,35.1
		C263.5,554.7,207.2,567.3,158.1,547.4L158.1,547.4z"/>
</g>
</svg>
